<mxfile host="65bd71144e">
    <diagram id="6LI-fRGxq1mgf2WbzU5b" name="Page-1">
        <mxGraphModel dx="1458" dy="730" grid="1" gridSize="10" guides="1" tooltips="1" connect="1" arrows="1" fold="1" page="1" pageScale="1" pageWidth="850" pageHeight="1100" math="0" shadow="0">
            <root>
                <mxCell id="0"/>
                <mxCell id="1" parent="0"/>
                <mxCell id="62" value="" style="rounded=1;absoluteArcSize=1;html=1;arcSize=10;" vertex="1" parent="1">
                    <mxGeometry x="60" y="10" width="1472.5" height="1020" as="geometry"/>
                </mxCell>
                <mxCell id="64" value="Nhận xét" style="rounded=1;absoluteArcSize=1;html=1;arcSize=10;whiteSpace=wrap;points=[];strokeColor=inherit;fillColor=inherit;align=left;" vertex="1" parent="62">
                    <mxGeometry x="1270" y="350" width="140" height="270" as="geometry"/>
                </mxCell>
                <mxCell id="63" value="main" style="html=1;shape=mxgraph.er.anchor;whiteSpace=wrap;" vertex="1" parent="62">
                    <mxGeometry width="715" height="1019.9999999999999" as="geometry"/>
                </mxCell>
                <mxCell id="65" value="Vấn đề" style="whiteSpace=wrap;html=1;align=center;" vertex="1" parent="62">
                    <mxGeometry x="1290" y="540.5999999999999" width="100" height="40.8" as="geometry"/>
                </mxCell>
                <mxCell id="10" value="Lịch" style="whiteSpace=wrap;html=1;align=center;" vertex="1" parent="62">
                    <mxGeometry x="1020" y="650" width="100" height="40" as="geometry"/>
                </mxCell>
                <mxCell id="6" value="Yêu cầu" style="whiteSpace=wrap;html=1;align=center;" vertex="1" parent="62">
                    <mxGeometry x="1090" y="330" width="100" height="40" as="geometry"/>
                </mxCell>
                <mxCell id="36" value="Có" style="shape=rhombus;perimeter=rhombusPerimeter;whiteSpace=wrap;html=1;align=center;" vertex="1" parent="62">
                    <mxGeometry x="930" y="330" width="120" height="60" as="geometry"/>
                </mxCell>
                <mxCell id="38" value="" style="fontSize=12;html=1;endArrow=ERmany;" edge="1" parent="62" source="36" target="6">
                    <mxGeometry width="100" height="100" relative="1" as="geometry">
                        <mxPoint x="1105" y="390" as="sourcePoint"/>
                        <mxPoint x="889.9999999999998" y="320" as="targetPoint"/>
                    </mxGeometry>
                </mxCell>
                <mxCell id="33" value="Gồm" style="shape=rhombus;perimeter=rhombusPerimeter;whiteSpace=wrap;html=1;align=center;" vertex="1" parent="62">
                    <mxGeometry x="1080" y="410" width="120" height="60" as="geometry"/>
                </mxCell>
                <mxCell id="34" value="" style="fontSize=12;html=1;endArrow=ERmany;" edge="1" parent="62" source="33" target="6">
                    <mxGeometry width="100" height="100" relative="1" as="geometry">
                        <mxPoint x="1060" y="520" as="sourcePoint"/>
                        <mxPoint x="1100" y="520" as="targetPoint"/>
                    </mxGeometry>
                </mxCell>
                <mxCell id="48" value="Có" style="shape=rhombus;perimeter=rhombusPerimeter;whiteSpace=wrap;html=1;align=center;" vertex="1" parent="62">
                    <mxGeometry x="850" y="640" width="120" height="60" as="geometry"/>
                </mxCell>
                <mxCell id="50" value="" style="fontSize=12;html=1;endArrow=ERoneToMany;" edge="1" parent="62" source="48" target="10">
                    <mxGeometry width="100" height="100" relative="1" as="geometry">
                        <mxPoint x="730" y="520.0000000000001" as="sourcePoint"/>
                        <mxPoint x="820" y="610" as="targetPoint"/>
                    </mxGeometry>
                </mxCell>
                <mxCell id="4" value="Lớp" style="whiteSpace=wrap;html=1;align=center;" vertex="1" parent="62">
                    <mxGeometry x="750" y="490" width="100" height="40" as="geometry"/>
                </mxCell>
                <mxCell id="49" value="" style="fontSize=12;html=1;endArrow=ERone;endFill=1;" edge="1" parent="62" source="48" target="4">
                    <mxGeometry width="100" height="100" relative="1" as="geometry">
                        <mxPoint x="610" y="520.0000000000001" as="sourcePoint"/>
                        <mxPoint x="560" y="520.0000000000001" as="targetPoint"/>
                    </mxGeometry>
                </mxCell>
                <mxCell id="39" value="Đảm nhiệm" style="shape=rhombus;perimeter=rhombusPerimeter;whiteSpace=wrap;html=1;align=center;" vertex="1" parent="62">
                    <mxGeometry x="620" y="330" width="120" height="60" as="geometry"/>
                </mxCell>
                <mxCell id="11" value="Thuộc" style="shape=rhombus;perimeter=rhombusPerimeter;whiteSpace=wrap;html=1;align=center;" vertex="1" parent="62">
                    <mxGeometry x="297.5" y="550" width="120" height="60" as="geometry"/>
                </mxCell>
                <mxCell id="7" value="Học kỳ" style="whiteSpace=wrap;html=1;align=center;" vertex="1" parent="62">
                    <mxGeometry x="307.5" y="700" width="100" height="40" as="geometry"/>
                </mxCell>
                <mxCell id="13" value="" style="fontSize=12;html=1;endArrow=ERmany;" edge="1" parent="62" source="11" target="7">
                    <mxGeometry width="100" height="100" relative="1" as="geometry">
                        <mxPoint x="260" y="580" as="sourcePoint"/>
                        <mxPoint x="360" y="480" as="targetPoint"/>
                    </mxGeometry>
                </mxCell>
                <mxCell id="67" value="Đăng ký" style="shape=rhombus;perimeter=rhombusPerimeter;whiteSpace=wrap;html=1;align=center;" vertex="1" parent="62">
                    <mxGeometry x="740" y="680" width="120" height="60" as="geometry"/>
                </mxCell>
                <mxCell id="69" value="" style="fontSize=12;html=1;endArrow=ERmany;" edge="1" parent="62" source="67" target="70">
                    <mxGeometry width="100" height="100" relative="1" as="geometry">
                        <mxPoint x="866.1971830985913" y="746.9014084507041" as="sourcePoint"/>
                        <mxPoint x="1119.0000000000005" y="910" as="targetPoint"/>
                    </mxGeometry>
                </mxCell>
                <mxCell id="70" value="Thanh Toán" style="whiteSpace=wrap;html=1;align=center;" vertex="1" parent="62">
                    <mxGeometry x="600" y="690" width="100" height="40" as="geometry"/>
                </mxCell>
                <mxCell id="74" value="" style="fontSize=12;html=1;endArrow=ERmany;" edge="1" parent="62" source="67" target="4">
                    <mxGeometry width="100" height="100" relative="1" as="geometry">
                        <mxPoint x="804.8275862068967" y="742.4137931034484" as="sourcePoint"/>
                        <mxPoint x="720" y="772.3529411764705" as="targetPoint"/>
                    </mxGeometry>
                </mxCell>
                <mxCell id="2" value="Giảng viên" style="whiteSpace=wrap;html=1;align=center;" vertex="1" parent="62">
                    <mxGeometry x="860" y="110" width="100" height="40" as="geometry"/>
                </mxCell>
                <mxCell id="37" value="" style="fontSize=12;html=1;endArrow=ERmany;" edge="1" parent="62" source="36" target="2">
                    <mxGeometry width="100" height="100" relative="1" as="geometry">
                        <mxPoint x="1270" y="520" as="sourcePoint"/>
                        <mxPoint x="1200" y="520" as="targetPoint"/>
                    </mxGeometry>
                </mxCell>
                <mxCell id="40" value="" style="fontSize=12;html=1;endArrow=ERoneToMany;" edge="1" parent="62" source="39" target="2">
                    <mxGeometry width="100" height="100" relative="1" as="geometry">
                        <mxPoint x="839.7931034482758" y="390.103448275862" as="sourcePoint"/>
                        <mxPoint x="839.7931034482758" y="340" as="targetPoint"/>
                    </mxGeometry>
                </mxCell>
                <mxCell id="66" value="" style="fontSize=12;html=1;endArrow=ERone;endFill=1;" edge="1" parent="62" source="48" target="2">
                    <mxGeometry width="100" height="100" relative="1" as="geometry">
                        <mxPoint x="1339.469026548673" y="591.3999999999999" as="sourcePoint"/>
                        <mxPoint x="1175" y="910" as="targetPoint"/>
                    </mxGeometry>
                </mxCell>
                <mxCell id="3" value="Học viên" style="whiteSpace=wrap;html=1;align=center;" vertex="1" parent="1">
                    <mxGeometry x="1150" y="910" width="100" height="40" as="geometry"/>
                </mxCell>
                <mxCell id="5" value="Môn" style="whiteSpace=wrap;html=1;align=center;" vertex="1" parent="1">
                    <mxGeometry x="510" y="500" width="100" height="40" as="geometry"/>
                </mxCell>
                <mxCell id="8" value="Nhóm" style="whiteSpace=wrap;html=1;align=center;" vertex="1" parent="1">
                    <mxGeometry x="1150" y="500" width="100" height="40" as="geometry"/>
                </mxCell>
                <mxCell id="12" value="" style="fontSize=12;html=1;endArrow=ERmany;" edge="1" parent="1" source="11" target="5">
                    <mxGeometry width="100" height="100" relative="1" as="geometry">
                        <mxPoint x="550" y="540" as="sourcePoint"/>
                        <mxPoint x="650" y="440" as="targetPoint"/>
                    </mxGeometry>
                </mxCell>
                <mxCell id="14" value="Có" style="shape=rhombus;perimeter=rhombusPerimeter;whiteSpace=wrap;html=1;align=center;" vertex="1" parent="1">
                    <mxGeometry x="660" y="490" width="120" height="60" as="geometry"/>
                </mxCell>
                <mxCell id="16" value="" style="fontSize=12;html=1;endArrow=ERone;endFill=1;" edge="1" parent="1" source="14" target="5">
                    <mxGeometry width="100" height="100" relative="1" as="geometry">
                        <mxPoint x="220" y="500" as="sourcePoint"/>
                        <mxPoint x="320" y="400" as="targetPoint"/>
                    </mxGeometry>
                </mxCell>
                <mxCell id="17" value="" style="fontSize=12;html=1;endArrow=ERoneToMany;" edge="1" parent="1" source="14" target="4">
                    <mxGeometry width="100" height="100" relative="1" as="geometry">
                        <mxPoint x="630" y="510" as="sourcePoint"/>
                        <mxPoint x="730" y="410" as="targetPoint"/>
                    </mxGeometry>
                </mxCell>
                <mxCell id="21" value="Chứa" style="shape=rhombus;perimeter=rhombusPerimeter;whiteSpace=wrap;html=1;align=center;" vertex="1" parent="1">
                    <mxGeometry x="1140" y="580" width="120" height="60" as="geometry"/>
                </mxCell>
                <mxCell id="22" value="" style="fontSize=12;html=1;endArrow=ERoneToMany;" edge="1" parent="1" source="21" target="8">
                    <mxGeometry width="100" height="100" relative="1" as="geometry">
                        <mxPoint x="950" y="440" as="sourcePoint"/>
                        <mxPoint x="950" y="529.9999999999998" as="targetPoint"/>
                    </mxGeometry>
                </mxCell>
                <mxCell id="24" value="" style="fontSize=12;html=1;endArrow=ERoneToMany;" edge="1" parent="1" source="21" target="3">
                    <mxGeometry width="100" height="100" relative="1" as="geometry">
                        <mxPoint x="590" y="590" as="sourcePoint"/>
                        <mxPoint x="690" y="490" as="targetPoint"/>
                    </mxGeometry>
                </mxCell>
                <mxCell id="25" value="Bộ" style="whiteSpace=wrap;html=1;align=center;" vertex="1" parent="1">
                    <mxGeometry x="670" y="910" width="100" height="40" as="geometry"/>
                </mxCell>
                <mxCell id="26" value="Chứa" style="shape=rhombus;perimeter=rhombusPerimeter;whiteSpace=wrap;html=1;align=center;" vertex="1" parent="1">
                    <mxGeometry x="500" y="900" width="120" height="60" as="geometry"/>
                </mxCell>
                <mxCell id="27" value="" style="fontSize=12;html=1;endArrow=ERmany;" edge="1" parent="1" source="26" target="5">
                    <mxGeometry width="100" height="100" relative="1" as="geometry">
                        <mxPoint x="590" y="820" as="sourcePoint"/>
                        <mxPoint x="690" y="720" as="targetPoint"/>
                    </mxGeometry>
                </mxCell>
                <mxCell id="28" value="" style="fontSize=12;html=1;endArrow=ERmany;" edge="1" parent="1" source="26" target="25">
                    <mxGeometry width="100" height="100" relative="1" as="geometry">
                        <mxPoint x="580" y="910" as="sourcePoint"/>
                        <mxPoint x="620" y="749.9999999999998" as="targetPoint"/>
                    </mxGeometry>
                </mxCell>
                <mxCell id="29" value="Có" style="shape=rhombus;perimeter=rhombusPerimeter;whiteSpace=wrap;html=1;align=center;" vertex="1" parent="1">
                    <mxGeometry x="990" y="490" width="120" height="60" as="geometry"/>
                </mxCell>
                <mxCell id="30" value="" style="fontSize=12;html=1;endArrow=ERmany;" edge="1" parent="1" source="29" target="4">
                    <mxGeometry width="100" height="100" relative="1" as="geometry">
                        <mxPoint x="1030" y="730" as="sourcePoint"/>
                        <mxPoint x="1130" y="630" as="targetPoint"/>
                    </mxGeometry>
                </mxCell>
                <mxCell id="32" value="" style="fontSize=12;html=1;endArrow=ERmany;" edge="1" parent="1" source="29" target="8">
                    <mxGeometry width="100" height="100" relative="1" as="geometry">
                        <mxPoint x="1050" y="529.9999999999998" as="sourcePoint"/>
                        <mxPoint x="950" y="529.9999999999998" as="targetPoint"/>
                    </mxGeometry>
                </mxCell>
                <mxCell id="35" value="" style="fontSize=12;html=1;endArrow=ERmany;" edge="1" parent="1" source="33" target="8">
                    <mxGeometry width="100" height="100" relative="1" as="geometry">
                        <mxPoint x="1450" y="530" as="sourcePoint"/>
                        <mxPoint x="1510" y="530" as="targetPoint"/>
                    </mxGeometry>
                </mxCell>
                <mxCell id="41" value="" style="fontSize=12;html=1;endArrow=ERoneToMany;" edge="1" parent="1" source="39" target="5">
                    <mxGeometry width="100" height="100" relative="1" as="geometry">
                        <mxPoint x="789.9999999999998" y="430" as="sourcePoint"/>
                        <mxPoint x="849.9999999999998" y="330" as="targetPoint"/>
                    </mxGeometry>
                </mxCell>
                <mxCell id="42" value="" style="fontSize=12;html=1;endArrow=ERmany;" edge="1" parent="1" source="43" target="25">
                    <mxGeometry width="100" height="100" relative="1" as="geometry">
                        <mxPoint x="990" y="930" as="sourcePoint"/>
                        <mxPoint x="850.0000000000002" y="940" as="targetPoint"/>
                    </mxGeometry>
                </mxCell>
                <mxCell id="43" value="Có" style="shape=rhombus;perimeter=rhombusPerimeter;whiteSpace=wrap;html=1;align=center;" vertex="1" parent="1">
                    <mxGeometry x="880" y="900" width="120" height="60" as="geometry"/>
                </mxCell>
                <mxCell id="44" value="" style="fontSize=12;html=1;endArrow=ERmany;" edge="1" parent="1" source="43" target="3">
                    <mxGeometry width="100" height="100" relative="1" as="geometry">
                        <mxPoint x="890.0000000000002" y="720" as="sourcePoint"/>
                        <mxPoint x="779.9999999999998" y="720" as="targetPoint"/>
                    </mxGeometry>
                </mxCell>
                <mxCell id="47" value="" style="fontSize=12;html=1;endArrow=ERmany;" edge="1" parent="1" source="48" target="3">
                    <mxGeometry width="100" height="100" relative="1" as="geometry">
                        <mxPoint x="1059.2000000000003" y="780.3999999999999" as="sourcePoint"/>
                        <mxPoint x="912.3809523809525" y="550" as="targetPoint"/>
                    </mxGeometry>
                </mxCell>
                <mxCell id="57" value="Có" style="shape=rhombus;perimeter=rhombusPerimeter;whiteSpace=wrap;html=1;align=center;" vertex="1" parent="1">
                    <mxGeometry x="1340" y="400" width="120" height="60" as="geometry"/>
                </mxCell>
                <mxCell id="58" value="" style="fontSize=12;html=1;endArrow=ERone;endFill=1;" edge="1" parent="1" source="57" target="2">
                    <mxGeometry width="100" height="100" relative="1" as="geometry">
                        <mxPoint x="670" y="530" as="sourcePoint"/>
                        <mxPoint x="620" y="530" as="targetPoint"/>
                    </mxGeometry>
                </mxCell>
                <mxCell id="59" value="" style="fontSize=12;html=1;endArrow=ERoneToMany;" edge="1" parent="1" source="57" target="65">
                    <mxGeometry width="100" height="100" relative="1" as="geometry">
                        <mxPoint x="790" y="530" as="sourcePoint"/>
                        <mxPoint x="1400" y="560" as="targetPoint"/>
                    </mxGeometry>
                </mxCell>
                <mxCell id="61" value="" style="fontSize=12;html=1;endArrow=ERone;endFill=1;entryX=0.75;entryY=0;entryDx=0;entryDy=0;" edge="1" parent="1" source="65" target="3">
                    <mxGeometry width="100" height="100" relative="1" as="geometry">
                        <mxPoint x="1387.1165644171779" y="613.5582822085892" as="sourcePoint"/>
                        <mxPoint x="1022.7777777777778" y="100" as="targetPoint"/>
                    </mxGeometry>
                </mxCell>
                <mxCell id="68" value="" style="fontSize=12;html=1;endArrow=ERmany;" edge="1" parent="1" source="67" target="3">
                    <mxGeometry width="100" height="100" relative="1" as="geometry">
                        <mxPoint x="998.9041095890411" y="710.5479452054794" as="sourcePoint"/>
                        <mxPoint x="1191.6000000000004" y="920" as="targetPoint"/>
                    </mxGeometry>
                </mxCell>
            </root>
        </mxGraphModel>
    </diagram>
</mxfile>